<?xml version="1.0" encoding="UTF-8"?>
<svg id="Layer_1" data-name="Layer 1" xmlns="http://www.w3.org/2000/svg" viewBox="0 0 215 178.42">
  <defs>
    <style>
      .cls-1 {
        fill: #0064a4;
      }

      .cls-2 {
        fill: #363545;
      }
    </style>
  </defs>
  <path class="cls-1" d="M176.94,119.47c-12.21,32.53-43.6,55.68-80.4,55.68S28.34,152,16.13,119.46c.38-.05,160.65,.46,160.81,.01Z"/>
  <path class="cls-1" d="M17.55,51.6C31.51,23.08,60.82,3.45,94.71,3.45s63.26,19.68,77.2,48.24c.26,.12-154.19-.13-154.35-.09Z"/>
  <path class="cls-1" d="M197.03,89.32c0,4.41-.26,8.73-.77,12.96-.27,0-162.98,.17-163.2,.17-.52-4.28-.79-8.67-.79-13.13,0-6.92,.65-13.64,1.88-20.09,.27,.34,161.43,.24,160.94-.31,1.27,6.54,1.94,13.37,1.94,20.39Z"/>
  <g>
    <path class="cls-2" d="M243.36,96.01c0-35.9,19.96-57.71,50.44-57.71,21.66,0,37.6,9.85,44.41,35.29l-17.95,4.7c-5.11-16.81-13-22.42-26.61-22.42s-30.79,8.18-30.79,39.69,15.32,42.11,31.56,42.11c15.16,0,25.53-8.79,26.77-25.3h-23.05v-15.3h41.62v55.44h-15.94v-16.21h-.31c-3.56,8.03-13.62,18.33-31.25,18.33-32.8,0-48.89-24.39-48.89-58.62Z"/>
    <path class="cls-2" d="M351.05,112.37c0-30.6,22.13-41.81,39.15-41.81,18.41,0,36.05,10.75,36.05,43.47v4.39h-56.17c.77,14.54,9.9,20.9,21.97,20.9,10.68,0,16.87-3.48,23.05-9.39l10.06,9.69c-8.51,9.24-19.8,14.54-34.5,14.54-20.58,0-39.61-12.27-39.61-41.81Zm57.71-7.88c-1.08-12.27-7.27-18.78-18.72-18.78-9.28,0-17.79,5.15-19.65,18.78h38.37Z"/>
    <path class="cls-2" d="M435.22,112.37c0-29.69,19.96-41.81,40.07-41.81s40.07,12.12,40.07,41.81-20.11,41.81-40.07,41.81-40.07-12.42-40.07-41.81Zm60.96,0c0-15-6.5-25.9-20.89-25.9s-20.89,9.69-20.89,25.9c0,15.3,6.34,26.21,20.89,26.21,13.77,0,20.89-9.69,20.89-26.21Z"/>
    <path class="cls-2" d="M522.8,141.45l10.37-11.36c6.19,5.15,15.32,9.54,25.84,9.54s16.4-2.57,16.4-9.24-8.35-8.48-18.26-10.75c-14.08-3.18-30.95-6.82-30.95-25.45,0-14.09,12.38-23.63,30.48-23.63,15.63,0,25.22,4.39,33.73,11.36l-9.13,12.12c-6.03-4.85-15.78-8.79-23.21-8.79-10.52,0-13.92,3.64-13.92,8.18,0,6.51,8.2,8.48,17.95,10.6,14.08,3.03,31.25,6.51,31.25,25.3,0,16.96-15.63,24.84-34.35,24.84-15.16,0-28.78-5.3-36.21-12.72Z"/>
    <path class="cls-2" d="M608.98,129.79v-57.71h19.19v53.32c0,8.94,3.87,13.03,12.22,13.03s15.32-4.24,22.28-10.45v-55.89h19.19v80.43h-19.19v-10.91c-5.26,5.45-15.16,12.42-30.02,12.42s-23.67-8.33-23.67-24.24Z"/>
    <path class="cls-2" d="M697.64,41.93h19.5v16.21h-19.5v-16.21Zm.15,30.14h19.19v80.43h-19.19V72.08Z"/>
    <path class="cls-2" d="M742.51,131.46v-44.53h-14.24v-14.84h14.24v-28.02h19.03v28.02h21.2v14.84h-21.2v39.84c0,8.63,2.63,12.12,12.07,12.12,2.79,0,6.34-.45,8.2-1.06v14.69c-2.01,.45-9.13,1.06-13.93,1.06-20.89,0-25.37-7.57-25.37-22.12Z"/>
    <path class="cls-2" d="M787.54,112.37c0-30.6,22.13-41.81,39.15-41.81,18.41,0,36.05,10.75,36.05,43.47v4.39h-56.17c.77,14.54,9.9,20.9,21.97,20.9,10.68,0,16.87-3.48,23.05-9.39l10.06,9.69c-8.51,9.24-19.8,14.54-34.5,14.54-20.58,0-39.61-12.27-39.61-41.81Zm57.71-7.88c-1.08-12.27-7.27-18.78-18.72-18.78-9.28,0-17.79,5.15-19.65,18.78h38.37Z"/>
  </g>
</svg>